<svg xmlns:svg="http://www.w3.org/2000/svg" id="svg5" width="48" height="48" version="1.1" viewBox="0 0 48 48">
<path id="rect9" fill="currentColor" fill-opacity="1" fill-rule="nonzero" stroke="none" stroke-dasharray="none" stroke-dashoffset="0" stroke-linecap="butt" stroke-linejoin="miter" stroke-miterlimit="4" stroke-opacity="1" stroke-width="2.706" d="M 9.0198748,1.1697417 A 1.0159478,1.0159478 0 0 0 9.1202909,3.1991545 H 38.882354 a 1.0148072,1.0148072 0 1 0 0,-2.0294128 H 9.1202889 a 1.0148072,1.0148072 0 0 0 -0.1004141,0 z m 0,5.4144071 A 1.0149363,1.0149363 0 0 0 9.1202909,8.6109184 H 22.993219 V 22.483848 H 3.7058819 C 2.230225,22.483848 1,23.714073 1,25.18973 v 18.935885 c 0,1.475661 1.230225,2.705886 2.7058819,2.705886 H 44.294118 C 45.769775,46.831501 47,45.601276 47,44.125615 V 25.18973 c 0,-1.475657 -1.230225,-2.705882 -2.705882,-2.705882 H 25.019989 V 8.6109184 h 13.862362 a 1.0148072,1.0148072 0 1 0 0,-2.0267696 H 9.1202889 a 1.0148072,1.0148072 0 0 0 -0.1004141,0 z M 3.7058819,25.18973 H 44.294118 V 44.125615 H 3.7058819 Z" baseline-shift="baseline" clip-rule="nonzero" color="currentColor" color-interpolation="sRGB" color-interpolation-filters="linearRGB" color-rendering="auto" direction="ltr" display="inline" dominant-baseline="auto" enable-background="accumulate" font-family="sans-serif" font-size="medium" font-stretch="normal" font-style="normal" font-variant="normal" font-weight="normal" image-rendering="auto" letter-spacing="normal" opacity="1" overflow="visible" shape-rendering="auto" style="line-height:normal;font-variant-ligatures:normal;font-variant-position:normal;font-variant-caps:normal;font-variant-numeric:normal;font-variant-alternates:normal;font-feature-settings:normal;text-indent:0;text-align:start;text-decoration-line:none;text-decoration-style:solid;text-decoration-color:currentColor;text-transform:none;text-orientation:mixed;white-space:normal;shape-padding:0;isolation:auto;mix-blend-mode:normal;solid-color:currentColor;solid-opacity:1" text-anchor="start" text-decoration="none" text-rendering="auto" vector-effect="none" visibility="visible" word-spacing="normal" writing-mode="lr-tb"/>
</svg>